<?xml version="1.0" standalone="no"?>
<!DOCTYPE svg PUBLIC "-//W3C//DTD SVG 20010904//EN"
 "http://www.w3.org/TR/2001/REC-SVG-20010904/DTD/svg10.dtd">
<svg version="1.0" xmlns="http://www.w3.org/2000/svg"
 width="700.000000pt" height="700.000000pt" viewBox="0 0 700.000000 700.000000"
 preserveAspectRatio="xMidYMid meet">
<metadata>
Created by potrace 1.14, written by Peter Selinger 2001-2017
</metadata>
<g transform="translate(0.000000,700.000000) scale(0.100000,-0.100000)"
fill="#000000" stroke="none">
<path d="M3278 6995 c-1 -1 -42 -5 -89 -9 -47 -4 -95 -8 -105 -10 -10 -2 -41
-7 -69 -10 -335 -44 -715 -158 -1030 -312 -180 -87 -448 -247 -555 -331 -8 -6
-51 -40 -95 -74 -342 -266 -650 -623 -875 -1014 -47 -81 -170 -327 -170 -339
0 -3 -11 -29 -24 -58 -41 -92 -114 -303 -142 -413 -4 -16 -8 -34 -10 -40 -5
-16 -25 -98 -30 -120 -48 -237 -54 -277 -71 -465 -15 -165 -8 -592 12 -711 2
-13 6 -46 9 -74 9 -78 22 -152 51 -285 21 -96 91 -339 114 -395 5 -11 26 -65
46 -120 21 -55 48 -121 61 -146 l23 -47 -58 -48 c-81 -69 -126 -127 -171 -219
-59 -122 -77 -248 -56 -385 9 -56 43 -198 55 -225 5 -11 19 -45 31 -75 142
-356 563 -798 935 -982 139 -69 134 -68 174 -51 167 70 386 216 545 364 32 30
28 31 133 -23 309 -160 739 -295 1092 -344 25 -3 57 -8 71 -10 162 -25 683
-25 841 1 13 2 47 7 74 10 72 10 86 12 120 19 17 3 44 8 60 11 192 37 425 105
630 187 116 46 353 161 439 213 32 19 62 35 67 35 5 0 9 5 9 10 0 6 5 10 10
10 15 0 219 141 326 224 96 75 198 163 271 233 l43 41 106 -54 106 -54 92 47
c50 26 134 80 186 119 91 69 241 212 277 264 9 14 24 32 32 40 23 24 95 139
129 206 57 113 81 200 87 320 7 129 -35 233 -133 332 l-63 63 40 122 c34 104
72 240 87 312 17 81 54 301 59 350 4 33 9 71 11 85 9 47 11 525 4 605 -15 157
-21 210 -25 225 -2 8 -7 35 -10 60 -3 25 -15 88 -26 140 -113 533 -315 978
-648 1426 l-23 32 62 93 c145 220 222 452 215 644 -14 322 -287 572 -614 561
-161 -5 -292 -64 -409 -184 l-54 -54 -55 56 c-115 120 -247 178 -411 182 -138
3 -259 -33 -363 -107 -19 -13 -39 -19 -52 -16 -12 3 -80 22 -152 41 -125 35
-291 72 -365 81 -19 3 -46 7 -60 10 -13 2 -52 7 -86 11 -33 3 -74 8 -90 10
-33 5 -540 14 -546 9z"/>
</g>
</svg>
